<?xml version="1.0" encoding="UTF-8" standalone="no"?>
<!-- Created with Inkscape (http://www.inkscape.org/) -->
<svg
   xmlns:dc="http://purl.org/dc/elements/1.1/"
   xmlns:cc="http://creativecommons.org/ns#"
   xmlns:rdf="http://www.w3.org/1999/02/22-rdf-syntax-ns#"
   xmlns:svg="http://www.w3.org/2000/svg"
   xmlns="http://www.w3.org/2000/svg"
   xmlns:sodipodi="http://sodipodi.sourceforge.net/DTD/sodipodi-0.dtd"
   xmlns:inkscape="http://www.inkscape.org/namespaces/inkscape"
   width="744.09448819"
   height="1052.3622047"
   id="svg2"
   sodipodi:version="0.32"
   inkscape:version="0.46"
   sodipodi:docname="plonethecomic.svg"
   inkscape:output_extension="org.inkscape.output.svg.inkscape">
  <defs
     id="defs4">
    <inkscape:perspective
       sodipodi:type="inkscape:persp3d"
       inkscape:vp_x="0 : 526.18109 : 1"
       inkscape:vp_y="0 : 1000 : 0"
       inkscape:vp_z="744.09448 : 526.18109 : 1"
       inkscape:persp3d-origin="372.04724 : 350.78739 : 1"
       id="perspective10" />
  </defs>
  <sodipodi:namedview
     id="base"
     pagecolor="#ffffff"
     bordercolor="#666666"
     borderopacity="1.0"
     gridtolerance="10000"
     guidetolerance="10"
     objecttolerance="10"
     inkscape:pageopacity="0.0"
     inkscape:pageshadow="2"
     inkscape:zoom="1"
     inkscape:cx="348.64285"
     inkscape:cy="620.39872"
     inkscape:document-units="px"
     inkscape:current-layer="layer1"
     showgrid="false"
     inkscape:window-width="1621"
     inkscape:window-height="1006"
     inkscape:window-x="59"
     inkscape:window-y="0" />
  <metadata
     id="metadata7">
    <rdf:RDF>
      <cc:Work
         rdf:about="">
        <dc:format>image/svg+xml</dc:format>
        <dc:type
           rdf:resource="http://purl.org/dc/dcmitype/StillImage" />
      </cc:Work>
    </rdf:RDF>
  </metadata>
  <g
     inkscape:label="Layer 1"
     inkscape:groupmode="layer"
     id="layer1">
    <path
       style="fill:none;fill-rule:evenodd;stroke:#000000;stroke-width:1px;stroke-linecap:butt;stroke-linejoin:miter;stroke-opacity:1"
       d="M 27.142857,272.81388 C 45.812506,273.30285 64.308013,281.37142 84.42407,283.49775 C 104.54012,285.62408 122.81461,273.90857 147.85714,276.38531 C 147.85714,276.38531 193.26255,282.95941 212.85715,282.81388 C 229.89475,282.68733 258.549,289.61477 269.28572,276.38531 C 280.81437,262.18005 262.6882,233.94447 263.57144,215.67103 C 264.44591,197.57898 274.32085,174.48574 275.00001,156.38532 C 275.55812,141.51102 270.14429,121.95958 269.28572,107.0996 C 268.30926,90.199216 281.25603,62.641336 269.28572,50.671026 C 256.40628,37.791586 226.78572,50.671026 208.57143,50.671026 C 190.35714,50.671026 166.07143,50.671026 147.85714,50.671026 C 129.64286,50.671026 105.35714,50.671026 87.142858,50.671026 C 68.928572,50.671026 39.308017,37.791586 26.428571,50.671026 C 14.458264,62.641336 23.571429,93.028176 23.571429,109.95675 C 23.571429,126.88532 20,154.45675 20,171.38532 C 20,188.31389 16.428571,215.88532 16.428571,232.81388 C 16.428571,249.74245 27.142857,272.81388 27.142857,272.81388 z"
       id="rect2383"
       sodipodi:nodetypes="cssssssssssssssss" />
    <g
       id="g3172"
       transform="translate(-271.42857,45)">
      <path
         d="M 360,90.933609 A 7.8571429,2.8571429 0 1 1 344.28571,90.933609 A 7.8571429,2.8571429 0 1 1 360,90.933609 z"
         sodipodi:ry="2.8571429"
         sodipodi:rx="7.8571429"
         sodipodi:cy="90.933609"
         sodipodi:cx="352.14285"
         id="path3156"
         style="fill:none"
         sodipodi:type="arc" />
      <path
         d="M 374.28572,93.433609 A 18.928572,18.928572 0 1 1 336.42858,93.433609 A 18.928572,18.928572 0 1 1 374.28572,93.433609 z"
         sodipodi:ry="18.928572"
         sodipodi:rx="18.928572"
         sodipodi:cy="93.433609"
         sodipodi:cx="355.35715"
         id="path3162"
         style="fill:none;stroke:#000000;stroke-width:2;stroke-miterlimit:4;stroke-dasharray:none;stroke-opacity:1"
         sodipodi:type="arc" />
      <path
         id="path3164"
         d="M 361.42857,112.36218 C 387.85714,203.07647 392.85714,204.50504 392.85714,204.50504"
         style="fill:none;fill-rule:evenodd;stroke:#000000;stroke-width:2;stroke-linecap:butt;stroke-linejoin:miter;stroke-miterlimit:4;stroke-dasharray:none;stroke-opacity:1" />
      <path
         id="path3166"
         d="M 343.57143,145.93361 C 395,121.6479 395,121.6479 395,121.6479"
         style="fill:none;fill-rule:evenodd;stroke:#000000;stroke-width:2;stroke-linecap:butt;stroke-linejoin:miter;stroke-miterlimit:4;stroke-dasharray:none;stroke-opacity:1" />
    </g>
    <text
       xml:space="preserve"
       style="font-size:75.77622986px;font-style:normal;font-weight:normal;fill:#000000;fill-opacity:1;stroke:none;stroke-width:1px;stroke-linecap:butt;stroke-linejoin:miter;stroke-opacity:1;font-family:Bitstream Vera Sans"
       x="148.44205"
       y="129.46027"
       id="text3168"
       transform="scale(1.037572,0.9637885)"><tspan
         sodipodi:role="line"
         id="tspan3170"
         x="148.44205"
         y="129.46027"
         style="font-style:normal;font-variant:normal;font-weight:normal;font-stretch:normal;font-family:Comic Sans MS;-inkscape-font-specification:Comic Sans MS">?</tspan></text>
    <text
       xml:space="preserve"
       style="font-size:40px;font-style:normal;font-variant:normal;font-weight:normal;font-stretch:normal;fill:#000000;fill-opacity:1;stroke:none;stroke-width:1px;stroke-linecap:butt;stroke-linejoin:miter;stroke-opacity:1;font-family:Comic Sans MS;-inkscape-font-specification:Comic Sans MS"
       x="143.57143"
       y="302.36218"
       id="text3178"><tspan
         sodipodi:role="line"
         id="tspan3180"
         x="143.57143"
         y="302.36218"
         style="font-size:18px;text-align:center;text-anchor:middle">You have a problem:</tspan><tspan
         sodipodi:role="line"
         x="143.57143"
         y="324.86218"
         id="tspan3182"
         style="font-size:18px;text-align:center;text-anchor:middle">you can't find instructions</tspan><tspan
         sodipodi:role="line"
         x="143.57143"
         y="347.36218"
         id="tspan3184"
         style="font-size:18px;text-align:center;text-anchor:middle">how to program Plone</tspan></text>
    <text
       xml:space="preserve"
       style="font-size:40px;font-style:normal;font-variant:normal;font-weight:normal;font-stretch:normal;fill:#000000;fill-opacity:1;stroke:none;stroke-width:1px;stroke-linecap:butt;stroke-linejoin:miter;stroke-opacity:1;font-family:Comic Sans MS;-inkscape-font-specification:Comic Sans MS"
       x="235"
       y="331.64789"
       id="text3186"><tspan
         sodipodi:role="line"
         id="tspan3188"
         x="235"
         y="331.64789" /></text>
    <path
       style="fill:none;fill-rule:evenodd;stroke:#000000;stroke-width:1px;stroke-linecap:butt;stroke-linejoin:miter;stroke-opacity:1"
       d="M 563.59158,54.279188 C 568.49336,42.361646 523.56928,47.864505 503.45323,45.738175 C 483.33717,43.611845 460.77697,52.470212 435.73444,49.993472 C 435.73444,49.993472 394.61474,46.276515 375.02014,46.422045 C 357.98254,46.548595 329.32829,39.621155 318.59157,52.850615 C 307.06292,67.055875 325.18909,95.291465 324.30585,113.5649 C 323.43138,131.65695 313.55644,154.75019 312.87728,172.85061 C 312.31917,187.72491 317.733,207.27635 318.59157,222.13633 C 319.56803,239.03672 310.19269,253.02317 322.163,264.99348 C 335.04244,277.87292 373.94871,284.2792 392.163,284.2792 C 410.37729,284.2792 413.94872,276.42205 432.16301,276.42205 C 450.37729,276.42205 482.5369,277.78397 500.73443,278.56491 C 552.23475,280.77501 548.56928,291.44435 561.44872,278.56491 C 573.41903,266.5946 564.30587,236.20776 564.30587,219.27918 C 564.30587,202.35061 567.8773,174.77918 567.8773,157.85061 C 567.8773,140.92204 554.30586,116.20775 554.30586,99.279198 C 554.30586,82.350628 563.59158,54.279188 563.59158,54.279188 z"
       id="path3190"
       sodipodi:nodetypes="cssssssssssssssss" />
    <path
       sodipodi:type="arc"
       style="fill:none"
       id="path3194"
       sodipodi:cx="352.14285"
       sodipodi:cy="90.933609"
       sodipodi:rx="7.8571429"
       sodipodi:ry="2.8571429"
       d="M 360,90.933609 A 7.8571429,2.8571429 0 1 1 344.28571,90.933609 A 7.8571429,2.8571429 0 1 1 360,90.933609 z"
       transform="matrix(-1,0,0,1,866.42858,122.14286)" />
    <path
       sodipodi:type="arc"
       style="fill:none;stroke:#000000;stroke-width:2;stroke-miterlimit:4;stroke-dasharray:none;stroke-opacity:1"
       id="path3196"
       sodipodi:cx="355.35715"
       sodipodi:cy="93.433609"
       sodipodi:rx="18.928572"
       sodipodi:ry="18.928572"
       d="M 374.28572,93.433609 A 18.928572,18.928572 0 1 1 336.42858,93.433609 A 18.928572,18.928572 0 1 1 374.28572,93.433609 z"
       transform="matrix(-1,0,0,1,866.42858,122.14286)" />
    <path
       sodipodi:nodetypes="cc"
       style="fill:none;fill-rule:evenodd;stroke:#000000;stroke-width:2;stroke-linecap:butt;stroke-linejoin:miter;stroke-miterlimit:4;stroke-dasharray:none;stroke-opacity:1"
       d="M 505.00001,234.50504 C 511.42858,245.21933 486.42858,276.6479 486.42858,276.6479"
       id="path3198" />
    <path
       style="fill:none;fill-rule:evenodd;stroke:#000000;stroke-width:2;stroke-linecap:butt;stroke-linejoin:miter;stroke-miterlimit:4;stroke-dasharray:none;stroke-opacity:1"
       d="M 522.85715,268.07647 C 471.42858,243.79076 471.42858,243.79076 471.42858,243.79076"
       id="path3200" />
    <path
       style="fill:none;fill-rule:evenodd;stroke:#000000;stroke-width:1px;stroke-linecap:butt;stroke-linejoin:miter;stroke-opacity:1"
       d="M 120.17857,147.00504 C 120.17857,145.7201 117.71351,147.89789 116.42857,147.89789 C 113.8612,147.89789 114.10714,146.44435 114.10714,144.32647 C 114.10714,142.14788 114.1941,140.20007 116.60714,141.64789 C 116.94954,141.85333 117.32143,142.00504 117.67857,142.18361 C 118.53704,142.61284 118.24868,140.11284 119.10714,139.68361 C 121.33452,138.56992 123.19642,139.42169 124.46429,141.11218 C 125.70263,142.76331 121.76921,143.25504 126.96429,143.25504 C 127.49861,143.25504 128.35412,147.9145 125.89286,148.96932 C 122.79005,150.2991 122.96017,149.60634 120.71429,151.29075 C 118.99337,152.58144 117.27358,152.68898 116.42857,150.57647 C 115.78729,148.97326 117.81069,148.48987 118.75,148.25504 C 119.12827,148.16047 119.67378,147.30791 120.17857,147.00504 z"
       id="path3220" />
    <path
       style="fill:none;fill-rule:evenodd;stroke:#000000;stroke-width:1px;stroke-linecap:butt;stroke-linejoin:miter;stroke-opacity:1"
       d="M 133.57143,125.21932 C 133.70657,125.18554 130.05412,125.71714 129.28571,128.79075 C 128.91276,130.28258 131.75143,130.72075 131.96429,130.93361 C 132.66099,131.63032 130.90752,132.64602 130.71429,133.61218 C 130.1554,136.40661 131.2809,136.11218 133.75,136.11218 C 136.03478,136.11218 134.34413,134.06668 135.89286,136.64789 C 137.28201,138.96315 142.03753,138.71751 143.75,137.00504 C 146.92899,133.82605 140.35762,133.07637 143.92857,132.36218 C 146.78486,131.79092 145.90189,127.36218 142.14286,127.36218 C 138.67761,127.36218 141.96429,128.52203 141.96429,125.39789 C 141.96429,123.18814 139.18238,123.79075 137.5,123.79075 C 135.98087,123.79075 138.57688,126.49657 137.67857,122.00504 C 137.43437,120.78401 133.12008,121.92068 132.5,122.54075 C 131.35924,123.68151 132.70961,124.70223 133.57143,125.21932 z"
       id="path3222" />
    <path
       style="fill:none;fill-rule:evenodd;stroke:#000000;stroke-width:1px;stroke-linecap:butt;stroke-linejoin:miter;stroke-opacity:1"
       d="M 135,81.469323 C 133.56864,79.083725 131.78099,79.716662 132.5,74.683609 C 132.91787,71.758491 137.78726,69.530904 139.64286,72.005038 C 140.8541,73.620027 140.43434,69.731983 140.89286,67.897895 C 141.59927,65.072255 146.58104,65.720233 147.14286,66.469323 C 147.17493,66.512088 146.51827,63.522483 148.39286,61.647895 C 151.2493,58.791449 154.18147,59.936509 156.42857,62.183609 C 158.78231,64.537347 156.00771,62.929753 160.35714,60.755038 C 160.83333,60.516942 161.30952,60.278847 161.78571,60.040752 C 164.2909,58.788157 166.36456,58.430241 168.75,60.219323 C 173.29432,63.62756 165.73258,63.883256 171.42857,59.326466 C 173.87799,57.366929 180.58025,58.455878 183.03571,59.683609 C 183.30191,59.816708 183.51191,60.040752 183.75,60.219323 C 184.06141,60.452883 181.33923,62.056073 185.89286,60.755038 C 190.17157,59.532547 195.37149,57.454649 197.27679,59.359948 C 201.37515,63.458315 203.49735,72.068622 201.57366,72.496109 C 189.53253,75.171914 203.92857,69.484172 203.92857,73.076466 C 203.92857,77.940158 214.73957,83.51547 209.28571,88.969323 C 205.64113,92.613904 199.70442,83.876934 206.78571,93.790752 C 208.74215,96.529757 209.62567,101.68705 205.35714,102.54075 C 203.85259,102.84166 203.44368,99.733041 204.28571,106.46932 C 205.01952,112.33974 206.88964,121.46932 198.75,121.46932 C 197.49858,121.46932 198.92857,123.96791 198.92857,125.21932 C 198.92857,128.42446 200.43342,135.70389 194.82143,132.89789 C 194.25718,132.61577 194.05921,137.60067 192.67857,139.32647 C 189.66512,143.09328 187.90202,135.93329 185.89286,138.61218 C 184.39256,140.61258 180.11691,141.29075 177.85714,141.29075 C 172.61113,141.29075 178.31162,135.86408 171.96429,140.39789 C 168.80583,142.65394 162.40769,143.84624 159.82143,140.39789 C 157.37616,137.13754 164.40883,137.7696 157.67857,136.64789 C 153.35434,135.92719 151.25,134.75496 151.25,130.57647 C 151.25,128.69886 154.21454,130.5053 151.25,127.54075 C 150.77942,127.07018 150.65476,126.35028 150.35714,125.75504 C 148.6714,122.38354 145.79044,118.19136 150.53571,117.00504 C 153.64589,116.22749 140.22535,116.92002 138.92857,114.32647 C 138.05246,112.57423 143.45875,109.47209 144.46429,108.96932 C 144.50846,108.94724 138.38809,107.89312 135.35714,104.86218 C 134.39643,103.90147 134.04762,102.48123 133.39286,101.29075 C 132.23449,99.184628 135.47728,97.183609 137.14286,97.183609 C 140.28179,97.183609 132.67882,97.541413 131.07143,93.255038 C 129.44604,88.92067 135.85605,85.76424 134.46429,86.112181 C 132.71682,86.549048 131.86916,83.412749 133.92857,82.897895 C 134.28594,82.808554 134.95426,81.54555 135,81.469323 z"
       id="path3226"
       sodipodi:nodetypes="csssssssssssssssssssssssssssssssssssssssssc" />
    <g
       id="g3341">
      <path
         transform="matrix(-1,0,0,-1,740.35715,219.36722)"
         d="M 374.28572,93.433609 A 18.928572,18.928572 0 1 1 336.42858,93.433609 A 18.928572,18.928572 0 1 1 374.28572,93.433609 z"
         sodipodi:ry="18.928572"
         sodipodi:rx="18.928572"
         sodipodi:cy="93.433609"
         sodipodi:cx="355.35715"
         id="path3206"
         style="fill:none;stroke:#000000;stroke-width:2;stroke-miterlimit:4;stroke-dasharray:none;stroke-opacity:1"
         sodipodi:type="arc" />
      <path
         id="path3212"
         d="M 372.77448,116.74551 L 363.39105,104.9132 L 349.90239,113.92829 L 363.39105,93.080902 L 372.77448,104.9132 L 373.36096,80.121713 L 379.22559,100.40566 L 388.60902,84.065814 L 389.78195,102.65943 L 393.8872,94.771231 L 424.38334,97.025004 L 395.06012,101.53255 L 396.81952,114.49174 L 380.98498,113.36486 L 372.77448,116.74551 z"
         style="fill:#000000;fill-opacity:1;fill-rule:evenodd;stroke:#000000;stroke-width:0.80477369px;stroke-linecap:butt;stroke-linejoin:miter;stroke-opacity:1" />
      <path
         transform="matrix(-1,0,0,-1,811.78571,212.93865)"
         d="M 374.28572,93.433609 A 18.928572,18.928572 0 1 1 336.42858,93.433609 A 18.928572,18.928572 0 1 1 374.28572,93.433609 z"
         sodipodi:ry="18.928572"
         sodipodi:rx="18.928572"
         sodipodi:cy="93.433609"
         sodipodi:cx="355.35715"
         id="path3214"
         style="fill:none;stroke:#000000;stroke-width:2;stroke-miterlimit:4;stroke-dasharray:none;stroke-opacity:1"
         sodipodi:type="arc" />
      <path
         id="path3234"
         d="M 430.27344,119.74499 C 428.84397,119.38762 428.71094,113.34419 428.71094,111.34655 C 428.71094,107.84867 431.21455,111.3111 431.83594,111.93249 C 433.04535,113.1419 431.95934,106.31991 434.57031,111.54187 C 435.64765,113.69654 436.82109,110.66202 438.28125,110.36999 C 440.17314,109.99161 438.31312,111.62359 439.25781,111.15124 C 440.94651,110.30689 439.25781,114.92728 439.25781,116.8153 C 439.25781,118.04449 439.67599,119.29927 439.0625,120.52624 C 435.82462,127.002 438.11786,115.57959 434.96094,121.89343 C 434.19866,123.41799 434.08763,118.41263 432.61719,122.08874 C 432.30465,122.8701 430.53638,119.9422 430.27344,119.74499 z"
         style="fill:#000000;fill-rule:evenodd;stroke:#000000;stroke-width:1px;stroke-linecap:butt;stroke-linejoin:miter;stroke-opacity:1;fill-opacity:1" />
      <path
         id="path3236"
         d="M 472.65625,119.9403 C 472.61714,120.03808 472.95187,117.00532 474.21875,114.47155 C 475.74423,111.4206 474.91238,116.14541 476.17188,111.73718 C 477.09775,108.49664 476.66966,115.53627 480.07813,112.1278 C 482.24615,109.95978 478.0233,117.32323 483.78906,112.51843 C 485.03235,111.48236 484.76563,110.08688 484.76563,114.66687 C 484.76563,117.19448 485.53383,120.34397 483.78906,122.08874 C 481.39017,124.48764 480.27344,118.18738 480.27344,120.13562 C 480.27344,123.93975 476.75914,114.85425 475.97656,119.54968 C 475.6386,121.57744 475.58164,122.28513 474.80469,122.47937 C 473.63609,122.77152 473.04396,120.90958 472.65625,119.9403 z"
         style="fill:#000000;fill-rule:evenodd;stroke:#000000;stroke-width:1px;stroke-linecap:butt;stroke-linejoin:miter;stroke-opacity:1;fill-opacity:1" />
    </g>
    <path
       style="fill:none;fill-opacity:1;stroke:#000000;stroke-width:2;stroke-miterlimit:4;stroke-dasharray:none;stroke-opacity:1"
       d="M 404.875 160.96875 C 381.04844 160.96875 361.71875 174.42812 361.71875 191.03125 C 361.71875 207.63438 381.04844 221.125 404.875 221.125 C 415.11298 221.125 424.53515 218.62371 431.9375 214.46875 C 434.20528 220.02617 440.46135 223.57378 446.875 225.40625 C 455.5855 227.89496 465.24889 232.06139 457.4375 224.25 C 454.16152 220.97401 450.80204 218.43736 449.21875 213.6875 C 448.1423 210.45814 446.07494 207.77489 444.9375 205.5 C 444.59866 204.82231 444.21402 204.31745 443.84375 203.9375 C 446.52278 200.02225 448.0625 195.65527 448.0625 191.03125 C 448.0625 174.42812 428.70156 160.96875 404.875 160.96875 z "
       id="path3240" />
    <text
       xml:space="preserve"
       style="font-size:25.21513557px;font-style:normal;font-variant:normal;font-weight:normal;font-stretch:normal;fill:#000000;fill-opacity:1;stroke:none;stroke-width:1px;stroke-linecap:butt;stroke-linejoin:miter;stroke-opacity:1;font-family:Comic Sans MS;-inkscape-font-specification:Comic Sans MS"
       x="389.80292"
       y="190.84998"
       id="text3245"
       transform="scale(0.9735168,1.0272037)"><tspan
         sodipodi:role="line"
         id="tspan3247"
         x="389.80292"
         y="190.84998">wtf?</tspan></text>
    <path
       style="fill:none;fill-rule:evenodd;stroke:#000000;stroke-width:2;stroke-linecap:butt;stroke-linejoin:miter;stroke-opacity:1;stroke-miterlimit:4;stroke-dasharray:none"
       d="M 471.99875,243.93384 C 470.24041,243.69034 468.13464,242.39285 468.13464,238.81264 C 468.13464,236.65411 468.6402,236.89474 469.10689,235.02798"
       id="path3269"
       sodipodi:nodetypes="csc" />
    <path
       style="fill:none;fill-rule:evenodd;stroke:#000000;stroke-width:2;stroke-linecap:butt;stroke-linejoin:miter;stroke-miterlimit:4;stroke-dasharray:none;stroke-opacity:1"
       d="M 519.84929,267.57523 C 519.84929,265.94632 523.62509,268.56819 525.08203,269.29666 C 528.60793,271.05961 530.84269,268.56759 531.98737,265.70588"
       id="path3271"
       sodipodi:nodetypes="csc" />
    <text
       xml:space="preserve"
       style="font-size:40px;font-style:normal;font-variant:normal;font-weight:normal;font-stretch:normal;fill:#000000;fill-opacity:1;stroke:none;stroke-width:1px;stroke-linecap:butt;stroke-linejoin:miter;stroke-opacity:1;font-family:Comic Sans MS;-inkscape-font-specification:Comic Sans MS"
       x="442.32846"
       y="305.1759"
       id="text3273"><tspan
         sodipodi:role="line"
         x="445.01791"
         y="305.1759"
         id="tspan3279"
         style="font-size:18px;text-align:center;text-anchor:middle">You ask help from </tspan><tspan
         sodipodi:role="line"
         x="442.32846"
         y="327.6759"
         style="font-size:18px;text-align:center;text-anchor:middle"
         id="tspan3286">the Plone community*</tspan></text>
    <path
       style="fill:none;fill-rule:evenodd;stroke:#000000;stroke-width:1px;stroke-linecap:butt;stroke-linejoin:miter;stroke-opacity:1"
       d="M 33.108578,591.90283 C 51.778228,592.3918 56.601863,594.60099 76.717923,596.72732 C 96.83397,598.85365 122.92096,591.43502 147.96349,593.91176 C 147.96349,593.91176 193.3689,600.48586 212.9635,600.34033 C 230.0011,600.21378 249.28035,604.79747 260.01707,591.56801 C 271.54572,577.36275 262.79455,551.47092 263.67779,533.19748 C 264.55226,515.10543 274.4272,492.01219 275.10636,473.91177 C 275.66447,459.03747 270.25064,439.48603 269.39207,424.62605 C 268.41561,407.72567 273.15925,386.02717 261.18894,374.05686 C 248.3095,361.17742 224.93894,370.93186 206.72465,370.93186 C 188.51036,370.93186 166.17778,366.63498 147.96349,366.63498 C 129.74921,366.63498 104.54104,373.92048 87.249213,368.19748 C 60.024465,359.18702 41.758113,359.22429 28.878673,372.10373 C 16.908363,384.07404 15.474658,415.63276 15.474658,432.56133 C 15.474658,449.4899 20.106353,471.9832 20.106353,488.91177 C 20.106353,505.84034 16.534923,533.41177 16.534923,550.34033 C 16.534923,567.2689 33.108578,591.90283 33.108578,591.90283 z"
       id="path3288"
       sodipodi:nodetypes="cssssssssssssssss" />
    <g
       id="g3290"
       transform="translate(-288.37054,426.91964)">
      <path
         d="M 360,90.933609 A 7.8571429,2.8571429 0 1 1 344.28571,90.933609 A 7.8571429,2.8571429 0 1 1 360,90.933609 z"
         sodipodi:ry="2.8571429"
         sodipodi:rx="7.8571429"
         sodipodi:cy="90.933609"
         sodipodi:cx="352.14285"
         id="path3292"
         style="fill:none"
         sodipodi:type="arc" />
      <path
         d="M 374.28572,93.433609 A 18.928572,18.928572 0 1 1 336.42858,93.433609 A 18.928572,18.928572 0 1 1 374.28572,93.433609 z"
         sodipodi:ry="18.928572"
         sodipodi:rx="18.928572"
         sodipodi:cy="93.433609"
         sodipodi:cx="355.35715"
         id="path3294"
         style="fill:none;stroke:#000000;stroke-width:2;stroke-miterlimit:4;stroke-dasharray:none;stroke-opacity:1"
         sodipodi:type="arc" />
      <path
         id="path3296"
         d="M 361.42857,112.36218 C 387.85714,203.07647 378.01339,169.34879 378.01339,169.34879"
         style="fill:none;fill-rule:evenodd;stroke:#000000;stroke-width:2;stroke-linecap:butt;stroke-linejoin:miter;stroke-miterlimit:4;stroke-dasharray:none;stroke-opacity:1"
         sodipodi:nodetypes="cc" />
      <path
         id="path3298"
         d="M 343.57143,145.93361 C 395,121.6479 395,121.6479 395,121.6479"
         style="fill:none;fill-rule:evenodd;stroke:#000000;stroke-width:2;stroke-linecap:butt;stroke-linejoin:miter;stroke-miterlimit:4;stroke-dasharray:none;stroke-opacity:1" />
    </g>
    <text
       xml:space="preserve"
       style="font-size:40px;font-style:normal;font-variant:normal;font-weight:normal;font-stretch:normal;fill:#000000;fill-opacity:1;stroke:none;stroke-width:1px;stroke-linecap:butt;stroke-linejoin:miter;stroke-opacity:1;font-family:Comic Sans MS;-inkscape-font-specification:Comic Sans MS"
       x="135.40234"
       y="625.32605"
       id="text3300"><tspan
         sodipodi:role="line"
         x="135.40234"
         y="625.32605"
         style="font-size:18px;text-align:center;text-anchor:middle"
         id="tspan3304">You fix your code AND</tspan><tspan
         sodipodi:role="line"
         x="138.0918"
         y="647.82605"
         style="font-size:18px;text-align:center;text-anchor:middle"
         id="tspan3308">write down the answer in </tspan><tspan
         sodipodi:role="line"
         x="135.40234"
         y="670.32605"
         style="font-size:18px;text-align:center;text-anchor:middle"
         id="tspan3310">this document**</tspan></text>
    <path
       style="fill:none;fill-rule:evenodd;stroke:#000000;stroke-width:1px;stroke-linecap:butt;stroke-linejoin:miter;stroke-opacity:1"
       d="M 554.38957,591.72972 C 545.87617,607.06244 530.89629,594.42788 510.78023,596.55421 C 490.66418,598.68054 461.45219,606.88691 436.40966,609.36365 C 436.40966,609.36365 389.44175,605.7815 369.84715,605.63597 C 352.80955,605.50942 338.2178,604.62436 327.48108,591.3949 C 315.95243,577.18964 312.2036,552.07906 311.32036,533.80562 C 310.44589,515.71357 319.32095,491.83908 318.64179,473.73866 C 318.08368,458.86436 317.24751,439.31292 318.10608,424.45294 C 319.08254,407.55256 314.3389,385.85406 326.30921,373.88375 C 339.18865,361.00431 371.15296,370.75875 389.36725,370.75875 C 407.58154,370.75875 437.72662,365.68062 455.94091,365.68062 C 474.15519,365.68062 482.95711,373.74737 500.24894,368.02437 C 527.47369,359.01391 545.74004,359.05118 558.61948,371.93062 C 570.58979,383.90093 572.02349,415.45965 572.02349,432.38822 C 572.02349,449.31679 567.3918,471.81009 567.3918,488.73866 C 567.3918,505.66723 570.96323,533.23866 570.96323,550.16722 C 570.96323,567.09579 554.38957,591.72972 554.38957,591.72972 z"
       id="path3312"
       sodipodi:nodetypes="cssssssssssssssss" />
    <text
       xml:space="preserve"
       style="font-size:40px;font-style:normal;font-variant:normal;font-weight:normal;font-stretch:normal;fill:#000000;fill-opacity:1;stroke:none;stroke-width:1px;stroke-linecap:butt;stroke-linejoin:miter;stroke-opacity:1;font-family:Comic Sans MS;-inkscape-font-specification:Comic Sans MS"
       x="434.82227"
       y="629.31287"
       id="text3314"><tspan
         sodipodi:role="line"
         x="434.82227"
         y="629.31287"
         style="font-size:18px;text-align:center;text-anchor:middle"
         id="tspan3320">You and others never</tspan><tspan
         sodipodi:role="line"
         x="434.82227"
         y="651.81287"
         style="font-size:18px;text-align:center;text-anchor:middle"
         id="tspan3327">need to solve the same problem</tspan><tspan
         sodipodi:role="line"
         x="434.82227"
         y="674.31287"
         style="font-size:18px;text-align:center;text-anchor:middle"
         id="tspan3329">again. Everyone is happy.</tspan></text>
    <g
       id="g3348"
       transform="translate(16.907969,313.00893)">
      <path
         transform="matrix(-1,0,0,-1,740.35715,219.36722)"
         d="M 374.28572,93.433609 A 18.928572,18.928572 0 1 1 336.42858,93.433609 A 18.928572,18.928572 0 1 1 374.28572,93.433609 z"
         sodipodi:ry="18.928572"
         sodipodi:rx="18.928572"
         sodipodi:cy="93.433609"
         sodipodi:cx="355.35715"
         id="path3350"
         style="fill:none;stroke:#000000;stroke-width:2;stroke-miterlimit:4;stroke-dasharray:none;stroke-opacity:1"
         sodipodi:type="arc" />
      <path
         id="path3352"
         d="M 372.77448,116.74551 L 363.39105,104.9132 L 349.90239,113.92829 L 363.39105,93.080902 L 372.77448,104.9132 L 373.36096,80.121713 L 379.22559,100.40566 L 388.60902,84.065814 L 389.78195,102.65943 L 393.8872,94.771231 L 424.38334,97.025004 L 395.06012,101.53255 L 396.81952,114.49174 L 380.98498,113.36486 L 372.77448,116.74551 z"
         style="fill:#000000;fill-opacity:1;fill-rule:evenodd;stroke:#000000;stroke-width:0.80477369px;stroke-linecap:butt;stroke-linejoin:miter;stroke-opacity:1" />
      <path
         transform="matrix(-1,0,0,-1,811.78571,212.93865)"
         d="M 374.28572,93.433609 A 18.928572,18.928572 0 1 1 336.42858,93.433609 A 18.928572,18.928572 0 1 1 374.28572,93.433609 z"
         sodipodi:ry="18.928572"
         sodipodi:rx="18.928572"
         sodipodi:cy="93.433609"
         sodipodi:cx="355.35715"
         id="path3354"
         style="fill:none;stroke:#000000;stroke-width:2;stroke-miterlimit:4;stroke-dasharray:none;stroke-opacity:1"
         sodipodi:type="arc" />
      <path
         id="path3356"
         d="M 430.27344,119.74499 C 428.84397,119.38762 428.71094,113.34419 428.71094,111.34655 C 428.71094,107.84867 431.21455,111.3111 431.83594,111.93249 C 433.04535,113.1419 431.95934,106.31991 434.57031,111.54187 C 435.64765,113.69654 436.82109,110.66202 438.28125,110.36999 C 440.17314,109.99161 438.31312,111.62359 439.25781,111.15124 C 440.94651,110.30689 439.25781,114.92728 439.25781,116.8153 C 439.25781,118.04449 439.67599,119.29927 439.0625,120.52624 C 435.82462,127.002 438.11786,115.57959 434.96094,121.89343 C 434.19866,123.41799 434.08763,118.41263 432.61719,122.08874 C 432.30465,122.8701 430.53638,119.9422 430.27344,119.74499 z"
         style="fill:#000000;fill-opacity:1;fill-rule:evenodd;stroke:#000000;stroke-width:1px;stroke-linecap:butt;stroke-linejoin:miter;stroke-opacity:1" />
      <path
         id="path3358"
         d="M 472.65625,119.9403 C 472.61714,120.03808 472.95187,117.00532 474.21875,114.47155 C 475.74423,111.4206 474.91238,116.14541 476.17188,111.73718 C 477.09775,108.49664 476.66966,115.53627 480.07813,112.1278 C 482.24615,109.95978 478.0233,117.32323 483.78906,112.51843 C 485.03235,111.48236 484.76563,110.08688 484.76563,114.66687 C 484.76563,117.19448 485.53383,120.34397 483.78906,122.08874 C 481.39017,124.48764 480.27344,118.18738 480.27344,120.13562 C 480.27344,123.93975 476.75914,114.85425 475.97656,119.54968 C 475.6386,121.57744 475.58164,122.28513 474.80469,122.47937 C 473.63609,122.77152 473.04396,120.90958 472.65625,119.9403 z"
         style="fill:#000000;fill-opacity:1;fill-rule:evenodd;stroke:#000000;stroke-width:1px;stroke-linecap:butt;stroke-linejoin:miter;stroke-opacity:1" />
    </g>
    <path
       style="fill:none;fill-opacity:1;stroke:#000000;stroke-width:1.99800003;stroke-miterlimit:4;stroke-dasharray:none;stroke-opacity:1"
       d="M 172.67728,416.21212 L 226.38246,423.9461 L 214.78149,517.42802 L 140.37318,504.44598 L 151.14551,438.77359 L 172.67728,416.21212 z"
       id="rect3360"
       sodipodi:nodetypes="cccccc" />
    <path
       style="fill:none;fill-rule:evenodd;stroke:#000000;stroke-width:1.82186973;stroke-linecap:butt;stroke-linejoin:miter;stroke-miterlimit:4;stroke-dasharray:none;stroke-opacity:1"
       d="M 177.85589,435.06261 L 213.96339,439.42321"
       id="path3365"
       sodipodi:nodetypes="cc" />
    <path
       style="fill:none;fill-rule:evenodd;stroke:#000000;stroke-width:2;stroke-linecap:butt;stroke-linejoin:miter;stroke-miterlimit:4;stroke-dasharray:none;stroke-opacity:1"
       d="M 160.79672,450.1606 L 211.76754,457.37329"
       id="path3367"
       sodipodi:nodetypes="cc" />
    <path
       style="fill:none;fill-rule:evenodd;stroke:#000000;stroke-width:2;stroke-linecap:butt;stroke-linejoin:miter;stroke-miterlimit:4;stroke-dasharray:none;stroke-opacity:1"
       d="M 148.92767,489.8947 L 201.96602,498.16485"
       id="path3369"
       sodipodi:nodetypes="cc" />
    <path
       style="fill:none;fill-rule:evenodd;stroke:#000000;stroke-width:2;stroke-linecap:butt;stroke-linejoin:miter;stroke-miterlimit:4;stroke-dasharray:none;stroke-opacity:1"
       d="M 154.40073,469.00722 L 207.43908,477.27737"
       id="path3373"
       sodipodi:nodetypes="cc" />
    <path
       style="fill:none;fill-rule:evenodd;stroke:#000000;stroke-width:1px;stroke-linecap:butt;stroke-linejoin:miter;stroke-opacity:1"
       d="M 115.94065,561.80685 L 98.055824,535.77372 L 102.26808,534.25455 L 117.11456,560.25315 L 115.94065,561.80685 z"
       id="path3375"
       sodipodi:nodetypes="ccccc" />
    <path
       style="fill:#000000;fill-rule:evenodd;stroke:#000000;stroke-width:1px;stroke-linecap:butt;stroke-linejoin:miter;stroke-opacity:1;fill-opacity:1"
       d="M 113.8,559.87336 C 113.26499,560.25306 113.52378,560.93471 113.52378,561.73779 C 113.52378,562.53911 113.70345,563.39537 114.00716,564.15466 C 114.35362,565.02082 114.9077,565.33143 115.52633,565.95006 C 115.78533,566.20905 117.09694,567.46041 117.52888,567.67638 C 118.42841,568.12614 120.6614,570.07443 120.0148,568.78124 C 119.81253,568.3767 119.69187,567.85915 119.53143,567.53828 C 119.28963,567.05469 119.72102,566.24506 119.80764,565.81195 C 120.01614,564.76945 119.39332,564.17705 119.39332,563.04981 C 119.39332,561.92488 118.23942,559.67119 117.11456,559.38998 C 115.84796,559.07333 116.47242,559.04471 115.18107,559.04471 C 114.70833,559.04471 114.21078,559.3914 113.86905,559.52809 C 113.76008,559.57168 113.82302,559.75827 113.8,559.87336 z"
       id="path3379"
       sodipodi:nodetypes="cssscccsssssc" />
    <path
       sodipodi:type="arc"
       style="fill:none;stroke:#000000;stroke-width:2;stroke-miterlimit:4;stroke-dasharray:none;stroke-opacity:1"
       id="path3381"
       sodipodi:cx="355.35715"
       sodipodi:cy="93.433609"
       sodipodi:rx="18.928572"
       sodipodi:ry="18.928572"
       d="M 374.28572,93.433609 A 18.928572,18.928572 0 1 1 336.42858,93.433609 A 18.928572,18.928572 0 1 1 374.28572,93.433609 z"
       transform="matrix(-1,0,0,1,856.67915,420.29805)" />
    <path
       style="fill:none;fill-rule:evenodd;stroke:#000000;stroke-width:2;stroke-linecap:butt;stroke-linejoin:miter;stroke-opacity:1;stroke-miterlimit:4;stroke-dasharray:none"
       d="M 495.3283,530.87093 L 474.46865,602.64227"
       id="path3391" />
    <path
       style="fill:none;fill-rule:evenodd;stroke:#000000;stroke-width:2;stroke-linecap:butt;stroke-linejoin:miter;stroke-opacity:1;stroke-miterlimit:4;stroke-dasharray:none"
       d="M 456.08387,509.30418 L 459.26585,540.41687 L 517.60216,559.1552 L 541.99735,530.87093"
       id="path3397" />
    <path
       style="fill:none;fill-rule:evenodd;stroke:#000000;stroke-width:2;stroke-linecap:butt;stroke-linejoin:miter;stroke-opacity:1;stroke-miterlimit:4;stroke-dasharray:none"
       d="M 489.75,516.11218 C 489.75,516.11218 487.93775,525.78767 495.75,527.36218 C 504.66052,529.15805 508,522.11218 508,522.11218"
       id="path3403"
       sodipodi:nodetypes="csc" />
    <path
       style="fill:none;fill-rule:evenodd;stroke:#000000;stroke-width:2;stroke-linecap:butt;stroke-linejoin:miter;stroke-miterlimit:4;stroke-dasharray:none;stroke-opacity:1"
       d="M 391.34101,444.46567 C 391.34101,444.46567 392.65376,451.76616 400.46601,453.34067 C 409.37653,455.13654 411.09101,444.59067 411.09101,444.59067"
       id="path3405"
       sodipodi:nodetypes="csc" />
    <path
       style="fill:none;fill-rule:evenodd;stroke:#000000;stroke-width:2;stroke-linecap:butt;stroke-linejoin:miter;stroke-miterlimit:4;stroke-dasharray:none;stroke-opacity:1"
       d="M 463.625,437.57176 C 463.625,437.57176 463.66005,446.30729 471.625,446.57176 C 480.53552,446.86763 481.25,437.82176 481.25,437.82176"
       id="path3407"
       sodipodi:nodetypes="csc" />
  </g>
</svg>
